<svg width="1024" height="753" viewBox="0 0 1024 753" fill="none" xmlns="http://www.w3.org/2000/svg">
<g opacity="0.2" filter="url(#filter0_f_175_1868)">
<ellipse cx="808.5" cy="-32" rx="670.5" ry="350" fill="#B3A659"/>
</g>
<path d="M329.035 204C330.53 204 331.662 204.63 332.431 205.891C333.213 207.138 333.605 208.953 333.605 211.336C333.605 213.719 333.213 215.541 332.431 216.802C331.662 218.063 330.53 218.693 329.035 218.693C327.554 218.693 326.422 218.063 325.639 216.802C324.856 215.541 324.465 213.719 324.465 211.336C324.465 208.967 324.856 207.152 325.639 205.891C326.422 204.63 327.554 204 329.035 204ZM325.953 211.336C325.953 213.026 326.107 214.35 326.415 215.306L331.068 206.099C330.579 205.448 329.901 205.122 329.035 205.122C328.071 205.122 327.316 205.635 326.771 206.66C326.226 207.672 325.953 209.23 325.953 211.336ZM329.035 217.55C330.013 217.55 330.775 217.044 331.32 216.033C331.865 215.008 332.137 213.442 332.137 211.336C332.137 209.549 331.963 208.163 331.613 207.18L326.96 216.469C327.463 217.19 328.154 217.55 329.035 217.55Z" fill="url(#paint0_linear_175_1868)" fill-opacity="0.6"/>
<path d="M330.293 241.135H333.374V242.236H325.387V241.135H328.951V229.455L325.555 231.471L324.968 230.536L329.161 227.959H330.293V241.135Z" fill="url(#paint1_linear_175_1868)" fill-opacity="0.6"/>
<path d="M329.035 251.502C330.53 251.502 331.662 252.133 332.431 253.393C333.213 254.64 333.605 256.455 333.605 258.838C333.605 261.221 333.213 263.043 332.431 264.304C331.662 265.565 330.53 266.195 329.035 266.195C327.554 266.195 326.422 265.565 325.639 264.304C324.856 263.043 324.465 261.221 324.465 258.838C324.465 256.469 324.856 254.654 325.639 253.393C326.422 252.133 327.554 251.502 329.035 251.502ZM325.953 258.838C325.953 260.529 326.107 261.852 326.415 262.808L331.068 253.601C330.579 252.95 329.901 252.624 329.035 252.624C328.071 252.624 327.316 253.137 326.771 254.162C326.226 255.174 325.953 256.732 325.953 258.838ZM329.035 265.052C330.013 265.052 330.775 264.546 331.32 263.535C331.865 262.51 332.137 260.944 332.137 258.838C332.137 257.051 331.963 255.665 331.613 254.682L326.96 263.971C327.463 264.692 328.154 265.052 329.035 265.052Z" fill="url(#paint2_linear_175_1868)" fill-opacity="0.6"/>
<path d="M330.293 288.637H333.374V289.738H325.387V288.637H328.951V276.957L325.555 278.973L324.968 278.038L329.161 275.461H330.293V288.637Z" fill="url(#paint3_linear_175_1868)" fill-opacity="0.6"/>
<path d="M330.293 312.388H333.374V313.489H325.387V312.388H328.951V300.708L325.555 302.724L324.968 301.789L329.161 299.212H330.293V312.388Z" fill="url(#paint4_linear_175_1868)" fill-opacity="0.6"/>
<path d="M329.035 322.755C330.53 322.755 331.662 323.386 332.431 324.646C333.213 325.893 333.605 327.708 333.605 330.091C333.605 332.474 333.213 334.296 332.431 335.557C331.662 336.818 330.53 337.448 329.035 337.448C327.554 337.448 326.422 336.818 325.639 335.557C324.856 334.296 324.465 332.474 324.465 330.091C324.465 327.722 324.856 325.907 325.639 324.646C326.422 323.386 327.554 322.755 329.035 322.755ZM325.953 330.091C325.953 331.782 326.107 333.105 326.415 334.061L331.068 324.854C330.579 324.203 329.901 323.878 329.035 323.878C328.071 323.878 327.316 324.39 326.771 325.415C326.226 326.427 325.953 327.985 325.953 330.091ZM329.035 336.305C330.013 336.305 330.775 335.8 331.32 334.788C331.865 333.763 332.137 332.197 332.137 330.091C332.137 328.304 331.963 326.919 331.613 325.935L326.96 335.225C327.463 335.945 328.154 336.305 329.035 336.305Z" fill="url(#paint5_linear_175_1868)" fill-opacity="0.6"/>
<path d="M330.293 359.89H333.374V360.992H325.387V359.89H328.951V348.21L325.555 350.226L324.968 349.291L329.161 346.714H330.293V359.89Z" fill="url(#paint6_linear_175_1868)" fill-opacity="0.6"/>
<path d="M329.035 370.257C330.53 370.257 331.662 370.888 332.431 372.149C333.213 373.396 333.605 375.211 333.605 377.594C333.605 379.977 333.213 381.798 332.431 383.059C331.662 384.32 330.53 384.95 329.035 384.95C327.554 384.95 326.422 384.32 325.639 383.059C324.856 381.798 324.465 379.977 324.465 377.594C324.465 375.224 324.856 373.409 325.639 372.149C326.422 370.888 327.554 370.257 329.035 370.257ZM325.953 377.594C325.953 379.284 326.107 380.607 326.415 381.563L331.068 372.356C330.579 371.705 329.901 371.38 329.035 371.38C328.071 371.38 327.316 371.892 326.771 372.918C326.226 373.929 325.953 375.488 325.953 377.594ZM329.035 383.807C330.013 383.807 330.775 383.302 331.32 382.29C331.865 381.265 332.137 379.699 332.137 377.594C332.137 375.806 331.963 374.421 331.613 373.437L326.96 382.727C327.463 383.447 328.154 383.807 329.035 383.807Z" fill="url(#paint7_linear_175_1868)" fill-opacity="0.6"/>
<path d="M329.035 394.008C330.53 394.008 331.662 394.639 332.431 395.9C333.213 397.147 333.605 398.962 333.605 401.345C333.605 403.728 333.213 405.549 332.431 406.81C331.662 408.071 330.53 408.701 329.035 408.701C327.554 408.701 326.422 408.071 325.639 406.81C324.856 405.549 324.465 403.728 324.465 401.345C324.465 398.975 324.856 397.16 325.639 395.9C326.422 394.639 327.554 394.008 329.035 394.008ZM325.953 401.345C325.953 403.035 326.107 404.358 326.415 405.314L331.068 396.107C330.579 395.456 329.901 395.131 329.035 395.131C328.071 395.131 327.316 395.643 326.771 396.669C326.226 397.68 325.953 399.239 325.953 401.345ZM329.035 407.558C330.013 407.558 330.775 407.053 331.32 406.041C331.865 405.016 332.137 403.451 332.137 401.345C332.137 399.557 331.963 398.172 331.613 397.188L326.96 406.478C327.463 407.198 328.154 407.558 329.035 407.558Z" fill="url(#paint8_linear_175_1868)" fill-opacity="0.6"/>
<path d="M330.293 431.143H333.374V432.245H325.387V431.143H328.951V419.464L325.555 421.48L324.968 420.544L329.161 417.967H330.293V431.143Z" fill="url(#paint9_linear_175_1868)" fill-opacity="0.6"/>
<path d="M329.035 441.511C330.53 441.511 331.662 442.141 332.431 443.402C333.213 444.649 333.605 446.464 333.605 448.847C333.605 451.23 333.213 453.052 332.431 454.312C331.662 455.573 330.53 456.204 329.035 456.204C327.554 456.204 326.422 455.573 325.639 454.312C324.856 453.052 324.465 451.23 324.465 448.847C324.465 446.478 324.856 444.663 325.639 443.402C326.422 442.141 327.554 441.511 329.035 441.511ZM325.953 448.847C325.953 450.537 326.107 451.86 326.415 452.816L331.068 443.61C330.579 442.958 329.901 442.633 329.035 442.633C328.071 442.633 327.316 443.145 326.771 444.171C326.226 445.182 325.953 446.741 325.953 448.847ZM329.035 455.061C330.013 455.061 330.775 454.555 331.32 453.543C331.865 452.518 332.137 450.953 332.137 448.847C332.137 447.059 331.963 445.674 331.613 444.69L326.96 453.98C327.463 454.7 328.154 455.061 329.035 455.061Z" fill="url(#paint10_linear_175_1868)" fill-opacity="0.6"/>
<path d="M330.293 478.645H333.374V479.747H325.387V478.645H328.951V466.966L325.555 468.982L324.968 468.046L329.161 465.469H330.293V478.645Z" fill="url(#paint11_linear_175_1868)" fill-opacity="0.6"/>
<path d="M330.293 502.396H333.374V503.498H325.387V502.396H328.951V490.717L325.555 492.733L324.968 491.798L329.161 489.221H330.293V502.396Z" fill="url(#paint12_linear_175_1868)" fill-opacity="0.6"/>
<path d="M367.965 251.502C369.46 251.502 370.592 252.133 371.361 253.393C372.144 254.64 372.535 256.455 372.535 258.838C372.535 261.221 372.144 263.043 371.361 264.304C370.592 265.565 369.46 266.195 367.965 266.195C366.484 266.195 365.352 265.565 364.569 264.304C363.787 263.043 363.395 261.221 363.395 258.838C363.395 256.469 363.787 254.654 364.569 253.393C365.352 252.133 366.484 251.502 367.965 251.502ZM364.884 258.838C364.884 260.529 365.037 261.852 365.345 262.808L369.998 253.601C369.509 252.95 368.832 252.624 367.965 252.624C367.001 252.624 366.246 253.137 365.701 254.162C365.156 255.174 364.884 256.732 364.884 258.838ZM367.965 265.052C368.943 265.052 369.705 264.546 370.25 263.535C370.795 262.51 371.068 260.944 371.068 258.838C371.068 257.051 370.893 255.665 370.543 254.682L365.89 263.971C366.393 264.692 367.085 265.052 367.965 265.052Z" fill="url(#paint13_linear_175_1868)" fill-opacity="0.6"/>
<path d="M369.223 288.637H372.304V289.738H364.318V288.637H367.881V276.957L364.485 278.973L363.898 278.038L368.091 275.461H369.223V288.637Z" fill="url(#paint14_linear_175_1868)" fill-opacity="0.6"/>
<path d="M367.965 299.004C369.46 299.004 370.592 299.635 371.361 300.895C372.144 302.142 372.535 303.957 372.535 306.34C372.535 308.723 372.144 310.545 371.361 311.806C370.592 313.067 369.46 313.697 367.965 313.697C366.484 313.697 365.352 313.067 364.569 311.806C363.787 310.545 363.395 308.723 363.395 306.34C363.395 303.971 363.787 302.156 364.569 300.895C365.352 299.635 366.484 299.004 367.965 299.004ZM364.884 306.34C364.884 308.031 365.037 309.354 365.345 310.31L369.998 301.103C369.509 300.452 368.832 300.126 367.965 300.126C367.001 300.126 366.246 300.639 365.701 301.664C365.156 302.676 364.884 304.234 364.884 306.34ZM367.965 312.554C368.943 312.554 369.705 312.049 370.25 311.037C370.795 310.012 371.068 308.446 371.068 306.34C371.068 304.553 370.893 303.168 370.543 302.184L365.89 311.474C366.393 312.194 367.085 312.554 367.965 312.554Z" fill="url(#paint15_linear_175_1868)" fill-opacity="0.6"/>
<path d="M367.965 322.755C369.46 322.755 370.592 323.386 371.361 324.646C372.144 325.893 372.535 327.708 372.535 330.091C372.535 332.474 372.144 334.296 371.361 335.557C370.592 336.818 369.46 337.448 367.965 337.448C366.484 337.448 365.352 336.818 364.569 335.557C363.787 334.296 363.395 332.474 363.395 330.091C363.395 327.722 363.787 325.907 364.569 324.646C365.352 323.386 366.484 322.755 367.965 322.755ZM364.884 330.091C364.884 331.782 365.037 333.105 365.345 334.061L369.998 324.854C369.509 324.203 368.832 323.878 367.965 323.878C367.001 323.878 366.246 324.39 365.701 325.415C365.156 326.427 364.884 327.985 364.884 330.091ZM367.965 336.305C368.943 336.305 369.705 335.8 370.25 334.788C370.795 333.763 371.068 332.197 371.068 330.091C371.068 328.304 370.893 326.919 370.543 325.935L365.89 335.225C366.393 335.945 367.085 336.305 367.965 336.305Z" fill="url(#paint16_linear_175_1868)" fill-opacity="0.6"/>
<path d="M369.223 359.89H372.304V360.992H364.318V359.89H367.881V348.21L364.485 350.226L363.898 349.291L368.091 346.714H369.223V359.89Z" fill="url(#paint17_linear_175_1868)" fill-opacity="0.6"/>
<path d="M367.965 370.257C369.46 370.257 370.592 370.888 371.361 372.149C372.144 373.396 372.535 375.211 372.535 377.594C372.535 379.977 372.144 381.798 371.361 383.059C370.592 384.32 369.46 384.95 367.965 384.95C366.484 384.95 365.352 384.32 364.569 383.059C363.787 381.798 363.395 379.977 363.395 377.594C363.395 375.224 363.787 373.409 364.569 372.149C365.352 370.888 366.484 370.257 367.965 370.257ZM364.884 377.594C364.884 379.284 365.037 380.607 365.345 381.563L369.998 372.356C369.509 371.705 368.832 371.38 367.965 371.38C367.001 371.38 366.246 371.892 365.701 372.918C365.156 373.929 364.884 375.488 364.884 377.594ZM367.965 383.807C368.943 383.807 369.705 383.302 370.25 382.29C370.795 381.265 371.068 379.699 371.068 377.594C371.068 375.806 370.893 374.421 370.543 373.437L365.89 382.727C366.393 383.447 367.085 383.807 367.965 383.807Z" fill="url(#paint18_linear_175_1868)" fill-opacity="0.6"/>
<path d="M369.223 407.392H372.304V408.494H364.318V407.392H367.881V395.713L364.485 397.728L363.898 396.793L368.091 394.216H369.223V407.392Z" fill="url(#paint19_linear_175_1868)" fill-opacity="0.6"/>
<path d="M367.965 417.76C369.46 417.76 370.592 418.39 371.361 419.651C372.144 420.898 372.535 422.713 372.535 425.096C372.535 427.479 372.144 429.301 371.361 430.561C370.592 431.822 369.46 432.453 367.965 432.453C366.484 432.453 365.352 431.822 364.569 430.561C363.787 429.301 363.395 427.479 363.395 425.096C363.395 422.726 363.787 420.911 364.569 419.651C365.352 418.39 366.484 417.76 367.965 417.76ZM364.884 425.096C364.884 426.786 365.037 428.109 365.345 429.065L369.998 419.859C369.509 419.207 368.832 418.882 367.965 418.882C367.001 418.882 366.246 419.394 365.701 420.42C365.156 421.431 364.884 422.99 364.884 425.096ZM367.965 431.31C368.943 431.31 369.705 430.804 370.25 429.792C370.795 428.767 371.068 427.202 371.068 425.096C371.068 423.308 370.893 421.923 370.543 420.939L365.89 430.229C366.393 430.949 367.085 431.31 367.965 431.31Z" fill="url(#paint20_linear_175_1868)" fill-opacity="0.6"/>
<path d="M367.965 441.511C369.46 441.511 370.592 442.141 371.361 443.402C372.144 444.649 372.535 446.464 372.535 448.847C372.535 451.23 372.144 453.052 371.361 454.312C370.592 455.573 369.46 456.204 367.965 456.204C366.484 456.204 365.352 455.573 364.569 454.312C363.787 453.052 363.395 451.23 363.395 448.847C363.395 446.478 363.787 444.663 364.569 443.402C365.352 442.141 366.484 441.511 367.965 441.511ZM364.884 448.847C364.884 450.537 365.037 451.86 365.345 452.816L369.998 443.61C369.509 442.958 368.832 442.633 367.965 442.633C367.001 442.633 366.246 443.145 365.701 444.171C365.156 445.182 364.884 446.741 364.884 448.847ZM367.965 455.061C368.943 455.061 369.705 454.555 370.25 453.543C370.795 452.518 371.068 450.953 371.068 448.847C371.068 447.059 370.893 445.674 370.543 444.69L365.89 453.98C366.393 454.7 367.085 455.061 367.965 455.061Z" fill="url(#paint21_linear_175_1868)" fill-opacity="0.6"/>
<path d="M369.223 478.645H372.304V479.747H364.318V478.645H367.881V466.966L364.485 468.982L363.898 468.046L368.091 465.469H369.223V478.645Z" fill="url(#paint22_linear_175_1868)" fill-opacity="0.6"/>
<path d="M367.965 489.013C369.46 489.013 370.592 489.643 371.361 490.904C372.144 492.151 372.535 493.966 372.535 496.349C372.535 498.732 372.144 500.554 371.361 501.815C370.592 503.075 369.46 503.706 367.965 503.706C366.484 503.706 365.352 503.075 364.569 501.815C363.787 500.554 363.395 498.732 363.395 496.349C363.395 493.98 363.787 492.165 364.569 490.904C365.352 489.643 366.484 489.013 367.965 489.013ZM364.884 496.349C364.884 498.039 365.037 499.362 365.345 500.318L369.998 491.112C369.509 490.461 368.832 490.135 367.965 490.135C367.001 490.135 366.246 490.648 365.701 491.673C365.156 492.684 364.884 494.243 364.884 496.349ZM367.965 502.563C368.943 502.563 369.705 502.057 370.25 501.046C370.795 500.02 371.068 498.455 371.068 496.349C371.068 494.562 370.893 493.176 370.543 492.192L365.89 501.482C366.393 502.202 367.085 502.563 367.965 502.563Z" fill="url(#paint23_linear_175_1868)" fill-opacity="0.6"/>
<path d="M369.223 526.148H372.304V527.249H364.318V526.148H367.881V514.468L364.485 516.484L363.898 515.549L368.091 512.972H369.223V526.148Z" fill="url(#paint24_linear_175_1868)" fill-opacity="0.6"/>
<path d="M369.223 549.899H372.304V551H364.318V549.899H367.881V538.219L364.485 540.235L363.898 539.3L368.091 536.723H369.223V549.899Z" fill="url(#paint25_linear_175_1868)" fill-opacity="0.6"/>
<path d="M309.57 275.253C311.065 275.253 312.197 275.884 312.966 277.144C313.748 278.391 314.14 280.206 314.14 282.589C314.14 284.972 313.748 286.794 312.966 288.055C312.197 289.316 311.065 289.946 309.57 289.946C308.088 289.946 306.956 289.316 306.174 288.055C305.391 286.794 305 284.972 305 282.589C305 280.22 305.391 278.405 306.174 277.144C306.956 275.884 308.088 275.253 309.57 275.253ZM306.488 282.589C306.488 284.28 306.642 285.603 306.95 286.559L311.603 277.352C311.114 276.701 310.436 276.375 309.57 276.375C308.606 276.375 307.851 276.888 307.306 277.913C306.761 278.925 306.488 280.483 306.488 282.589ZM309.57 288.803C310.548 288.803 311.31 288.297 311.855 287.286C312.4 286.261 312.672 284.695 312.672 282.589C312.672 280.802 312.498 279.417 312.148 278.433L307.495 287.722C307.998 288.443 308.689 288.803 309.57 288.803Z" fill="url(#paint26_linear_175_1868)" fill-opacity="0.6"/>
<path d="M309.57 299.004C311.065 299.004 312.197 299.635 312.966 300.895C313.748 302.142 314.14 303.957 314.14 306.34C314.14 308.723 313.748 310.545 312.966 311.806C312.197 313.067 311.065 313.697 309.57 313.697C308.088 313.697 306.956 313.067 306.174 311.806C305.391 310.545 305 308.723 305 306.34C305 303.971 305.391 302.156 306.174 300.895C306.956 299.635 308.088 299.004 309.57 299.004ZM306.488 306.34C306.488 308.031 306.642 309.354 306.95 310.31L311.603 301.103C311.114 300.452 310.436 300.126 309.57 300.126C308.606 300.126 307.851 300.639 307.306 301.664C306.761 302.676 306.488 304.234 306.488 306.34ZM309.57 312.554C310.548 312.554 311.31 312.049 311.855 311.037C312.4 310.012 312.672 308.446 312.672 306.34C312.672 304.553 312.498 303.168 312.148 302.184L307.495 311.474C307.998 312.194 308.689 312.554 309.57 312.554Z" fill="url(#paint27_linear_175_1868)" fill-opacity="0.6"/>
<path d="M310.828 336.139H313.909V337.24H305.922V336.139H309.486V324.459L306.09 326.475L305.503 325.54L309.696 322.963H310.828V336.139Z" fill="url(#paint28_linear_175_1868)" fill-opacity="0.6"/>
<path d="M309.57 346.506C311.065 346.506 312.197 347.137 312.966 348.398C313.748 349.644 314.14 351.459 314.14 353.842C314.14 356.225 313.748 358.047 312.966 359.308C312.197 360.569 311.065 361.199 309.57 361.199C308.088 361.199 306.956 360.569 306.174 359.308C305.391 358.047 305 356.225 305 353.842C305 351.473 305.391 349.658 306.174 348.398C306.956 347.137 308.088 346.506 309.57 346.506ZM306.488 353.842C306.488 355.533 306.642 356.856 306.95 357.812L311.603 348.605C311.114 347.954 310.436 347.629 309.57 347.629C308.606 347.629 307.851 348.141 307.306 349.166C306.761 350.178 306.488 351.737 306.488 353.842ZM309.57 360.056C310.548 360.056 311.31 359.551 311.855 358.539C312.4 357.514 312.672 355.948 312.672 353.842C312.672 352.055 312.498 350.67 312.148 349.686L307.495 358.976C307.998 359.696 308.689 360.056 309.57 360.056Z" fill="url(#paint29_linear_175_1868)" fill-opacity="0.6"/>
<path d="M310.828 383.641H313.909V384.743H305.922V383.641H309.486V371.962L306.09 373.977L305.503 373.042L309.696 370.465H310.828V383.641Z" fill="url(#paint30_linear_175_1868)" fill-opacity="0.6"/>
<path d="M310.828 407.392H313.909V408.494H305.922V407.392H309.486V395.713L306.09 397.728L305.503 396.793L309.696 394.216H310.828V407.392Z" fill="url(#paint31_linear_175_1868)" fill-opacity="0.6"/>
<path d="M349.758 241.135H352.839V242.236H344.853V241.135H348.416V229.455L345.02 231.471L344.433 230.536L348.626 227.959H349.758V241.135Z" fill="url(#paint32_linear_175_1868)" fill-opacity="0.6"/>
<path d="M348.5 251.502C349.995 251.502 351.127 252.133 351.896 253.393C352.679 254.64 353.07 256.455 353.07 258.838C353.07 261.221 352.679 263.043 351.896 264.304C351.127 265.565 349.995 266.195 348.5 266.195C347.019 266.195 345.887 265.565 345.104 264.304C344.321 263.043 343.93 261.221 343.93 258.838C343.93 256.469 344.321 254.654 345.104 253.393C345.887 252.133 347.019 251.502 348.5 251.502ZM345.419 258.838C345.419 260.529 345.572 261.852 345.88 262.808L350.533 253.601C350.044 252.95 349.366 252.624 348.5 252.624C347.536 252.624 346.781 253.137 346.236 254.162C345.691 255.174 345.419 256.732 345.419 258.838ZM348.5 265.052C349.478 265.052 350.24 264.546 350.785 263.535C351.33 262.51 351.602 260.944 351.602 258.838C351.602 257.051 351.428 255.665 351.078 254.682L346.425 263.971C346.928 264.692 347.62 265.052 348.5 265.052Z" fill="url(#paint33_linear_175_1868)" fill-opacity="0.6"/>
<path d="M349.758 288.637H352.839V289.738H344.853V288.637H348.416V276.957L345.02 278.973L344.433 278.038L348.626 275.461H349.758V288.637Z" fill="url(#paint34_linear_175_1868)" fill-opacity="0.6"/>
<path d="M349.758 312.388H352.839V313.489H344.853V312.388H348.416V300.708L345.02 302.724L344.433 301.789L348.626 299.212H349.758V312.388Z" fill="url(#paint35_linear_175_1868)" fill-opacity="0.6"/>
<path d="M348.5 322.755C349.995 322.755 351.127 323.386 351.896 324.646C352.679 325.893 353.07 327.708 353.07 330.091C353.07 332.474 352.679 334.296 351.896 335.557C351.127 336.818 349.995 337.448 348.5 337.448C347.019 337.448 345.887 336.818 345.104 335.557C344.321 334.296 343.93 332.474 343.93 330.091C343.93 327.722 344.321 325.907 345.104 324.646C345.887 323.386 347.019 322.755 348.5 322.755ZM345.419 330.091C345.419 331.782 345.572 333.105 345.88 334.061L350.533 324.854C350.044 324.203 349.366 323.878 348.5 323.878C347.536 323.878 346.781 324.39 346.236 325.415C345.691 326.427 345.419 327.985 345.419 330.091ZM348.5 336.305C349.478 336.305 350.24 335.8 350.785 334.788C351.33 333.763 351.602 332.197 351.602 330.091C351.602 328.304 351.428 326.919 351.078 325.935L346.425 335.225C346.928 335.945 347.62 336.305 348.5 336.305Z" fill="url(#paint36_linear_175_1868)" fill-opacity="0.6"/>
<path d="M349.758 359.89H352.839V360.992H344.853V359.89H348.416V348.21L345.02 350.226L344.433 349.291L348.626 346.714H349.758V359.89Z" fill="url(#paint37_linear_175_1868)" fill-opacity="0.6"/>
<path d="M349.758 383.641H352.839V384.743H344.853V383.641H348.416V371.962L345.02 373.977L344.433 373.042L348.626 370.465H349.758V383.641Z" fill="url(#paint38_linear_175_1868)" fill-opacity="0.6"/>
<path d="M348.5 394.008C349.995 394.008 351.127 394.639 351.896 395.9C352.679 397.147 353.07 398.962 353.07 401.345C353.07 403.728 352.679 405.549 351.896 406.81C351.127 408.071 349.995 408.701 348.5 408.701C347.019 408.701 345.887 408.071 345.104 406.81C344.321 405.549 343.93 403.728 343.93 401.345C343.93 398.975 344.321 397.16 345.104 395.9C345.887 394.639 347.019 394.008 348.5 394.008ZM345.419 401.345C345.419 403.035 345.572 404.358 345.88 405.314L350.533 396.107C350.044 395.456 349.366 395.131 348.5 395.131C347.536 395.131 346.781 395.643 346.236 396.669C345.691 397.68 345.419 399.239 345.419 401.345ZM348.5 407.558C349.478 407.558 350.24 407.053 350.785 406.041C351.33 405.016 351.602 403.451 351.602 401.345C351.602 399.557 351.428 398.172 351.078 397.188L346.425 406.478C346.928 407.198 347.62 407.558 348.5 407.558Z" fill="url(#paint39_linear_175_1868)" fill-opacity="0.6"/>
<path d="M349.758 431.143H352.839V432.245H344.853V431.143H348.416V419.464L345.02 421.48L344.433 420.544L348.626 417.967H349.758V431.143Z" fill="url(#paint40_linear_175_1868)" fill-opacity="0.6"/>
<path d="M348.5 441.511C349.995 441.511 351.127 442.141 351.896 443.402C352.679 444.649 353.07 446.464 353.07 448.847C353.07 451.23 352.679 453.052 351.896 454.312C351.127 455.573 349.995 456.204 348.5 456.204C347.019 456.204 345.887 455.573 345.104 454.312C344.321 453.052 343.93 451.23 343.93 448.847C343.93 446.478 344.321 444.663 345.104 443.402C345.887 442.141 347.019 441.511 348.5 441.511ZM345.419 448.847C345.419 450.537 345.572 451.86 345.88 452.816L350.533 443.61C350.044 442.958 349.366 442.633 348.5 442.633C347.536 442.633 346.781 443.145 346.236 444.171C345.691 445.182 345.419 446.741 345.419 448.847ZM348.5 455.061C349.478 455.061 350.24 454.555 350.785 453.543C351.33 452.518 351.602 450.953 351.602 448.847C351.602 447.059 351.428 445.674 351.078 444.69L346.425 453.98C346.928 454.7 347.62 455.061 348.5 455.061Z" fill="url(#paint41_linear_175_1868)" fill-opacity="0.6"/>
<path d="M387.43 227.751C388.926 227.751 390.057 228.381 390.826 229.642C391.609 230.889 392 232.704 392 235.087C392 237.47 391.609 239.292 390.826 240.553C390.057 241.814 388.926 242.444 387.43 242.444C385.949 242.444 384.817 241.814 384.034 240.553C383.252 239.292 382.86 237.47 382.86 235.087C382.86 232.718 383.252 230.903 384.034 229.642C384.817 228.381 385.949 227.751 387.43 227.751ZM384.349 235.087C384.349 236.777 384.502 238.101 384.81 239.057L389.464 229.85C388.974 229.199 388.297 228.873 387.43 228.873C386.466 228.873 385.711 229.386 385.166 230.411C384.621 231.423 384.349 232.981 384.349 235.087ZM387.43 241.301C388.408 241.301 389.17 240.795 389.715 239.784C390.26 238.759 390.533 237.193 390.533 235.087C390.533 233.3 390.358 231.914 390.009 230.931L385.355 240.22C385.858 240.941 386.55 241.301 387.43 241.301Z" fill="url(#paint42_linear_175_1868)" fill-opacity="0.6"/>
<path d="M388.688 264.886H391.769V265.987H383.783V264.886H387.346V253.206L383.95 255.222L383.363 254.287L387.556 251.71H388.688V264.886Z" fill="url(#paint43_linear_175_1868)" fill-opacity="0.6"/>
<path d="M388.688 288.637H391.769V289.738H383.783V288.637H387.346V276.957L383.95 278.973L383.363 278.038L387.556 275.461H388.688V288.637Z" fill="url(#paint44_linear_175_1868)" fill-opacity="0.6"/>
<path d="M387.43 299.004C388.926 299.004 390.057 299.635 390.826 300.895C391.609 302.142 392 303.957 392 306.34C392 308.723 391.609 310.545 390.826 311.806C390.057 313.067 388.926 313.697 387.43 313.697C385.949 313.697 384.817 313.067 384.034 311.806C383.252 310.545 382.86 308.723 382.86 306.34C382.86 303.971 383.252 302.156 384.034 300.895C384.817 299.635 385.949 299.004 387.43 299.004ZM384.349 306.34C384.349 308.031 384.502 309.354 384.81 310.31L389.464 301.103C388.974 300.452 388.297 300.126 387.43 300.126C386.466 300.126 385.711 300.639 385.166 301.664C384.621 302.676 384.349 304.234 384.349 306.34ZM387.43 312.554C388.408 312.554 389.17 312.049 389.715 311.037C390.26 310.012 390.533 308.446 390.533 306.34C390.533 304.553 390.358 303.168 390.009 302.184L385.355 311.474C385.858 312.194 386.55 312.554 387.43 312.554Z" fill="url(#paint45_linear_175_1868)" fill-opacity="0.6"/>
<path d="M387.43 322.755C388.926 322.755 390.057 323.386 390.826 324.646C391.609 325.893 392 327.708 392 330.091C392 332.474 391.609 334.296 390.826 335.557C390.057 336.818 388.926 337.448 387.43 337.448C385.949 337.448 384.817 336.818 384.034 335.557C383.252 334.296 382.86 332.474 382.86 330.091C382.86 327.722 383.252 325.907 384.034 324.646C384.817 323.386 385.949 322.755 387.43 322.755ZM384.349 330.091C384.349 331.782 384.502 333.105 384.81 334.061L389.464 324.854C388.974 324.203 388.297 323.878 387.43 323.878C386.466 323.878 385.711 324.39 385.166 325.415C384.621 326.427 384.349 327.985 384.349 330.091ZM387.43 336.305C388.408 336.305 389.17 335.8 389.715 334.788C390.26 333.763 390.533 332.197 390.533 330.091C390.533 328.304 390.358 326.919 390.009 325.935L385.355 335.225C385.858 335.945 386.55 336.305 387.43 336.305Z" fill="url(#paint46_linear_175_1868)" fill-opacity="0.6"/>
<defs>
<filter id="filter0_f_175_1868" x="-262.19" y="-782.19" width="2141.38" height="1500.38" filterUnits="userSpaceOnUse" color-interpolation-filters="sRGB">
<feFlood flood-opacity="0" result="BackgroundImageFix"/>
<feBlend mode="normal" in="SourceGraphic" in2="BackgroundImageFix" result="shape"/>
<feGaussianBlur stdDeviation="200.095" result="effect1_foregroundBlur_175_1868"/>
</filter>
<linearGradient id="paint0_linear_175_1868" x1="348.5" y1="204" x2="348.5" y2="515.381" gradientUnits="userSpaceOnUse">
<stop stop-color="#F7DD43"/>
<stop offset="1" stop-color="#F7DD43" stop-opacity="0"/>
</linearGradient>
<linearGradient id="paint1_linear_175_1868" x1="348.5" y1="204" x2="348.5" y2="515.381" gradientUnits="userSpaceOnUse">
<stop stop-color="#F7DD43"/>
<stop offset="1" stop-color="#F7DD43" stop-opacity="0"/>
</linearGradient>
<linearGradient id="paint2_linear_175_1868" x1="348.5" y1="204" x2="348.5" y2="515.381" gradientUnits="userSpaceOnUse">
<stop stop-color="#F7DD43"/>
<stop offset="1" stop-color="#F7DD43" stop-opacity="0"/>
</linearGradient>
<linearGradient id="paint3_linear_175_1868" x1="348.5" y1="204" x2="348.5" y2="515.381" gradientUnits="userSpaceOnUse">
<stop stop-color="#F7DD43"/>
<stop offset="1" stop-color="#F7DD43" stop-opacity="0"/>
</linearGradient>
<linearGradient id="paint4_linear_175_1868" x1="348.5" y1="204" x2="348.5" y2="515.381" gradientUnits="userSpaceOnUse">
<stop stop-color="#F7DD43"/>
<stop offset="1" stop-color="#F7DD43" stop-opacity="0"/>
</linearGradient>
<linearGradient id="paint5_linear_175_1868" x1="348.5" y1="204" x2="348.5" y2="515.381" gradientUnits="userSpaceOnUse">
<stop stop-color="#F7DD43"/>
<stop offset="1" stop-color="#F7DD43" stop-opacity="0"/>
</linearGradient>
<linearGradient id="paint6_linear_175_1868" x1="348.5" y1="204" x2="348.5" y2="515.381" gradientUnits="userSpaceOnUse">
<stop stop-color="#F7DD43"/>
<stop offset="1" stop-color="#F7DD43" stop-opacity="0"/>
</linearGradient>
<linearGradient id="paint7_linear_175_1868" x1="348.5" y1="204" x2="348.5" y2="515.381" gradientUnits="userSpaceOnUse">
<stop stop-color="#F7DD43"/>
<stop offset="1" stop-color="#F7DD43" stop-opacity="0"/>
</linearGradient>
<linearGradient id="paint8_linear_175_1868" x1="348.5" y1="204" x2="348.5" y2="515.381" gradientUnits="userSpaceOnUse">
<stop stop-color="#F7DD43"/>
<stop offset="1" stop-color="#F7DD43" stop-opacity="0"/>
</linearGradient>
<linearGradient id="paint9_linear_175_1868" x1="348.5" y1="204" x2="348.5" y2="515.381" gradientUnits="userSpaceOnUse">
<stop stop-color="#F7DD43"/>
<stop offset="1" stop-color="#F7DD43" stop-opacity="0"/>
</linearGradient>
<linearGradient id="paint10_linear_175_1868" x1="348.5" y1="204" x2="348.5" y2="515.381" gradientUnits="userSpaceOnUse">
<stop stop-color="#F7DD43"/>
<stop offset="1" stop-color="#F7DD43" stop-opacity="0"/>
</linearGradient>
<linearGradient id="paint11_linear_175_1868" x1="348.5" y1="204" x2="348.5" y2="515.381" gradientUnits="userSpaceOnUse">
<stop stop-color="#F7DD43"/>
<stop offset="1" stop-color="#F7DD43" stop-opacity="0"/>
</linearGradient>
<linearGradient id="paint12_linear_175_1868" x1="348.5" y1="204" x2="348.5" y2="515.381" gradientUnits="userSpaceOnUse">
<stop stop-color="#F7DD43"/>
<stop offset="1" stop-color="#F7DD43" stop-opacity="0"/>
</linearGradient>
<linearGradient id="paint13_linear_175_1868" x1="348.5" y1="204" x2="348.5" y2="515.381" gradientUnits="userSpaceOnUse">
<stop stop-color="#F7DD43"/>
<stop offset="1" stop-color="#F7DD43" stop-opacity="0"/>
</linearGradient>
<linearGradient id="paint14_linear_175_1868" x1="348.5" y1="204" x2="348.5" y2="515.381" gradientUnits="userSpaceOnUse">
<stop stop-color="#F7DD43"/>
<stop offset="1" stop-color="#F7DD43" stop-opacity="0"/>
</linearGradient>
<linearGradient id="paint15_linear_175_1868" x1="348.5" y1="204" x2="348.5" y2="515.381" gradientUnits="userSpaceOnUse">
<stop stop-color="#F7DD43"/>
<stop offset="1" stop-color="#F7DD43" stop-opacity="0"/>
</linearGradient>
<linearGradient id="paint16_linear_175_1868" x1="348.5" y1="204" x2="348.5" y2="515.381" gradientUnits="userSpaceOnUse">
<stop stop-color="#F7DD43"/>
<stop offset="1" stop-color="#F7DD43" stop-opacity="0"/>
</linearGradient>
<linearGradient id="paint17_linear_175_1868" x1="348.5" y1="204" x2="348.5" y2="515.381" gradientUnits="userSpaceOnUse">
<stop stop-color="#F7DD43"/>
<stop offset="1" stop-color="#F7DD43" stop-opacity="0"/>
</linearGradient>
<linearGradient id="paint18_linear_175_1868" x1="348.5" y1="204" x2="348.5" y2="515.381" gradientUnits="userSpaceOnUse">
<stop stop-color="#F7DD43"/>
<stop offset="1" stop-color="#F7DD43" stop-opacity="0"/>
</linearGradient>
<linearGradient id="paint19_linear_175_1868" x1="348.5" y1="204" x2="348.5" y2="515.381" gradientUnits="userSpaceOnUse">
<stop stop-color="#F7DD43"/>
<stop offset="1" stop-color="#F7DD43" stop-opacity="0"/>
</linearGradient>
<linearGradient id="paint20_linear_175_1868" x1="348.5" y1="204" x2="348.5" y2="515.381" gradientUnits="userSpaceOnUse">
<stop stop-color="#F7DD43"/>
<stop offset="1" stop-color="#F7DD43" stop-opacity="0"/>
</linearGradient>
<linearGradient id="paint21_linear_175_1868" x1="348.5" y1="204" x2="348.5" y2="515.381" gradientUnits="userSpaceOnUse">
<stop stop-color="#F7DD43"/>
<stop offset="1" stop-color="#F7DD43" stop-opacity="0"/>
</linearGradient>
<linearGradient id="paint22_linear_175_1868" x1="348.5" y1="204" x2="348.5" y2="515.381" gradientUnits="userSpaceOnUse">
<stop stop-color="#F7DD43"/>
<stop offset="1" stop-color="#F7DD43" stop-opacity="0"/>
</linearGradient>
<linearGradient id="paint23_linear_175_1868" x1="348.5" y1="204" x2="348.5" y2="515.381" gradientUnits="userSpaceOnUse">
<stop stop-color="#F7DD43"/>
<stop offset="1" stop-color="#F7DD43" stop-opacity="0"/>
</linearGradient>
<linearGradient id="paint24_linear_175_1868" x1="348.5" y1="204" x2="348.5" y2="515.381" gradientUnits="userSpaceOnUse">
<stop stop-color="#F7DD43"/>
<stop offset="1" stop-color="#F7DD43" stop-opacity="0"/>
</linearGradient>
<linearGradient id="paint25_linear_175_1868" x1="348.5" y1="204" x2="348.5" y2="515.381" gradientUnits="userSpaceOnUse">
<stop stop-color="#F7DD43"/>
<stop offset="1" stop-color="#F7DD43" stop-opacity="0"/>
</linearGradient>
<linearGradient id="paint26_linear_175_1868" x1="348.5" y1="204" x2="348.5" y2="515.381" gradientUnits="userSpaceOnUse">
<stop stop-color="#F7DD43"/>
<stop offset="1" stop-color="#F7DD43" stop-opacity="0"/>
</linearGradient>
<linearGradient id="paint27_linear_175_1868" x1="348.5" y1="204" x2="348.5" y2="515.381" gradientUnits="userSpaceOnUse">
<stop stop-color="#F7DD43"/>
<stop offset="1" stop-color="#F7DD43" stop-opacity="0"/>
</linearGradient>
<linearGradient id="paint28_linear_175_1868" x1="348.5" y1="204" x2="348.5" y2="515.381" gradientUnits="userSpaceOnUse">
<stop stop-color="#F7DD43"/>
<stop offset="1" stop-color="#F7DD43" stop-opacity="0"/>
</linearGradient>
<linearGradient id="paint29_linear_175_1868" x1="348.5" y1="204" x2="348.5" y2="515.381" gradientUnits="userSpaceOnUse">
<stop stop-color="#F7DD43"/>
<stop offset="1" stop-color="#F7DD43" stop-opacity="0"/>
</linearGradient>
<linearGradient id="paint30_linear_175_1868" x1="348.5" y1="204" x2="348.5" y2="515.381" gradientUnits="userSpaceOnUse">
<stop stop-color="#F7DD43"/>
<stop offset="1" stop-color="#F7DD43" stop-opacity="0"/>
</linearGradient>
<linearGradient id="paint31_linear_175_1868" x1="348.5" y1="204" x2="348.5" y2="515.381" gradientUnits="userSpaceOnUse">
<stop stop-color="#F7DD43"/>
<stop offset="1" stop-color="#F7DD43" stop-opacity="0"/>
</linearGradient>
<linearGradient id="paint32_linear_175_1868" x1="348.5" y1="204" x2="348.5" y2="515.381" gradientUnits="userSpaceOnUse">
<stop stop-color="#F7DD43"/>
<stop offset="1" stop-color="#F7DD43" stop-opacity="0"/>
</linearGradient>
<linearGradient id="paint33_linear_175_1868" x1="348.5" y1="204" x2="348.5" y2="515.381" gradientUnits="userSpaceOnUse">
<stop stop-color="#F7DD43"/>
<stop offset="1" stop-color="#F7DD43" stop-opacity="0"/>
</linearGradient>
<linearGradient id="paint34_linear_175_1868" x1="348.5" y1="204" x2="348.5" y2="515.381" gradientUnits="userSpaceOnUse">
<stop stop-color="#F7DD43"/>
<stop offset="1" stop-color="#F7DD43" stop-opacity="0"/>
</linearGradient>
<linearGradient id="paint35_linear_175_1868" x1="348.5" y1="204" x2="348.5" y2="515.381" gradientUnits="userSpaceOnUse">
<stop stop-color="#F7DD43"/>
<stop offset="1" stop-color="#F7DD43" stop-opacity="0"/>
</linearGradient>
<linearGradient id="paint36_linear_175_1868" x1="348.5" y1="204" x2="348.5" y2="515.381" gradientUnits="userSpaceOnUse">
<stop stop-color="#F7DD43"/>
<stop offset="1" stop-color="#F7DD43" stop-opacity="0"/>
</linearGradient>
<linearGradient id="paint37_linear_175_1868" x1="348.5" y1="204" x2="348.5" y2="515.381" gradientUnits="userSpaceOnUse">
<stop stop-color="#F7DD43"/>
<stop offset="1" stop-color="#F7DD43" stop-opacity="0"/>
</linearGradient>
<linearGradient id="paint38_linear_175_1868" x1="348.5" y1="204" x2="348.5" y2="515.381" gradientUnits="userSpaceOnUse">
<stop stop-color="#F7DD43"/>
<stop offset="1" stop-color="#F7DD43" stop-opacity="0"/>
</linearGradient>
<linearGradient id="paint39_linear_175_1868" x1="348.5" y1="204" x2="348.5" y2="515.381" gradientUnits="userSpaceOnUse">
<stop stop-color="#F7DD43"/>
<stop offset="1" stop-color="#F7DD43" stop-opacity="0"/>
</linearGradient>
<linearGradient id="paint40_linear_175_1868" x1="348.5" y1="204" x2="348.5" y2="515.381" gradientUnits="userSpaceOnUse">
<stop stop-color="#F7DD43"/>
<stop offset="1" stop-color="#F7DD43" stop-opacity="0"/>
</linearGradient>
<linearGradient id="paint41_linear_175_1868" x1="348.5" y1="204" x2="348.5" y2="515.381" gradientUnits="userSpaceOnUse">
<stop stop-color="#F7DD43"/>
<stop offset="1" stop-color="#F7DD43" stop-opacity="0"/>
</linearGradient>
<linearGradient id="paint42_linear_175_1868" x1="348.5" y1="204" x2="348.5" y2="515.381" gradientUnits="userSpaceOnUse">
<stop stop-color="#F7DD43"/>
<stop offset="1" stop-color="#F7DD43" stop-opacity="0"/>
</linearGradient>
<linearGradient id="paint43_linear_175_1868" x1="348.5" y1="204" x2="348.5" y2="515.381" gradientUnits="userSpaceOnUse">
<stop stop-color="#F7DD43"/>
<stop offset="1" stop-color="#F7DD43" stop-opacity="0"/>
</linearGradient>
<linearGradient id="paint44_linear_175_1868" x1="348.5" y1="204" x2="348.5" y2="515.381" gradientUnits="userSpaceOnUse">
<stop stop-color="#F7DD43"/>
<stop offset="1" stop-color="#F7DD43" stop-opacity="0"/>
</linearGradient>
<linearGradient id="paint45_linear_175_1868" x1="348.5" y1="204" x2="348.5" y2="515.381" gradientUnits="userSpaceOnUse">
<stop stop-color="#F7DD43"/>
<stop offset="1" stop-color="#F7DD43" stop-opacity="0"/>
</linearGradient>
<linearGradient id="paint46_linear_175_1868" x1="348.5" y1="204" x2="348.5" y2="515.381" gradientUnits="userSpaceOnUse">
<stop stop-color="#F7DD43"/>
<stop offset="1" stop-color="#F7DD43" stop-opacity="0"/>
</linearGradient>
</defs>
</svg>
